<?xml version="1.0" encoding="utf-8"?>
<!-- Generator: Adobe Illustrator 23.0.1, SVG Export Plug-In . SVG Version: 6.00 Build 0)  -->
<svg version="1.1" id="图层_1" xmlns="http://www.w3.org/2000/svg" xmlns:xlink="http://www.w3.org/1999/xlink" x="0px" y="0px"
	 viewBox="0 0 304 42" style="enable-background:new 0 0 304 42;" xml:space="preserve">
<style type="text/css">
	.st0{stroke:#000000;stroke-miterlimit:10;}
</style>
<g>
	<path class="st0" d="M2.45,29.61H4.4c0.47,3.07,1.73,5.49,3.8,7.25c2.07,1.76,4.62,2.64,7.65,2.64c1.23,0,2.37-0.14,3.4-0.44
		c1.03-0.29,1.92-0.7,2.65-1.24c0.73-0.53,1.3-1.16,1.7-1.89c0.4-0.73,0.6-1.54,0.6-2.45c0-0.78-0.13-1.45-0.38-2.01
		c-0.25-0.57-0.73-1.12-1.43-1.65c-0.7-0.53-1.66-1.07-2.88-1.62c-1.22-0.55-2.79-1.18-4.73-1.89c-3.9-1.46-6.78-3.14-8.65-5.07
		c-1.87-1.92-2.8-4.2-2.8-6.81c0-1.52,0.3-2.91,0.9-4.17C4.85,9,5.69,7.92,6.78,7.01C7.86,6.1,9.16,5.4,10.68,4.9
		c1.52-0.5,3.19-0.75,5.03-0.75c1.7,0,3.3,0.26,4.8,0.78c1.5,0.52,2.98,1.29,4.45,2.33l0.9-2.42h1.2L27.6,15.3h-1.95
		c-0.8-2.65-2.05-4.68-3.75-6.09c-1.7-1.41-3.67-2.11-5.9-2.11c-2.07,0-3.74,0.49-5.02,1.48c-1.28,0.99-1.93,2.25-1.93,3.81
		c0,0.68,0.12,1.29,0.35,1.82c0.23,0.53,0.67,1.04,1.3,1.53c0.63,0.48,1.5,0.98,2.6,1.48c1.1,0.5,2.52,1.06,4.25,1.67
		c2.33,0.87,4.33,1.75,5.98,2.64c1.65,0.89,3,1.84,4.05,2.86c1.05,1.02,1.83,2.09,2.33,3.23s0.75,2.38,0.75,3.73
		c0,1.65-0.37,3.15-1.1,4.51c-0.73,1.36-1.76,2.52-3.07,3.49c-1.32,0.97-2.88,1.73-4.7,2.28c-1.82,0.55-3.82,0.82-6.02,0.82
		c-2,0-3.8-0.27-5.4-0.8c-1.6-0.53-3.25-1.4-4.95-2.59l-1,2.91H3.2L2.45,29.61z"/>
	<path class="st0" d="M61.43,23.31h-1.51c-0.07-1.11-0.24-2.03-0.51-2.77c-0.27-0.74-0.65-1.32-1.14-1.77
		c-0.49-0.44-1.08-0.75-1.79-0.92c-0.7-0.17-1.52-0.25-2.45-0.25c-0.91,0-1.64,0.02-2.19,0.05c-0.55,0.03-0.97,0.09-1.26,0.17
		c-0.29,0.08-0.48,0.19-0.58,0.32c-0.09,0.14-0.14,0.31-0.14,0.51v17.79c0,0.72,0.05,1.35,0.16,1.87c0.1,0.52,0.32,0.95,0.65,1.27
		c0.33,0.33,0.8,0.58,1.43,0.75c0.63,0.17,1.46,0.27,2.49,0.29v1.36H39.94v-1.36c1.05-0.02,1.89-0.12,2.52-0.29
		c0.63-0.17,1.11-0.42,1.45-0.75c0.34-0.33,0.56-0.75,0.67-1.27c0.1-0.52,0.16-1.14,0.16-1.87V18.65c0-0.2-0.04-0.37-0.12-0.51
		s-0.25-0.24-0.51-0.32c-0.26-0.08-0.63-0.14-1.1-0.17c-0.48-0.03-1.1-0.05-1.87-0.05c-0.84,0-1.64,0.04-2.42,0.12
		c-0.77,0.08-1.45,0.31-2.03,0.68c-0.58,0.37-1.06,0.94-1.42,1.7c-0.36,0.76-0.55,1.83-0.58,3.21h-1.37l0.35-7.47h27.41L61.43,23.31
		z"/>
	<path class="st0" d="M86.17,22.39c0,1.88-0.56,3.45-1.68,4.72c-1.12,1.27-2.9,2.12-5.35,2.55l8.12,9.03c0.56,0.63,1.22,1.11,2,1.44
		c0.77,0.33,1.55,0.49,2.34,0.49v1.36H83.3l-8.68-10.32c-0.58-0.68-1.09-1.14-1.52-1.38c-0.43-0.24-0.83-0.36-1.21-0.36v6.65
		c0,0.84,0.06,1.52,0.17,2.05c0.12,0.53,0.35,0.95,0.7,1.24c0.35,0.29,0.86,0.49,1.52,0.59c0.67,0.1,1.56,0.15,2.68,0.15v1.36h-13.9
		v-1.36c0.77,0,1.39-0.05,1.87-0.15c0.48-0.1,0.85-0.29,1.12-0.58c0.27-0.28,0.45-0.68,0.54-1.19c0.09-0.51,0.14-1.16,0.14-1.95
		V21.06c0-0.79-0.04-1.43-0.11-1.92c-0.07-0.49-0.22-0.87-0.46-1.15c-0.23-0.28-0.57-0.48-1-0.58c-0.43-0.1-1.01-0.17-1.73-0.22
		v-1.36h12.11c3.38,0,6,0.58,7.84,1.73C85.25,18.72,86.17,20.33,86.17,22.39z M71.89,27.89h2.28c2.19,0,3.83-0.41,4.92-1.24
		c1.08-0.83,1.63-2.19,1.63-4.09c0-1.45-0.46-2.61-1.37-3.5c-0.91-0.88-2.17-1.32-3.78-1.32h-3.04c-0.42,0-0.63,0.19-0.63,0.58
		V27.89z"/>
	<path class="st0" d="M107.91,34.07H98c-1.1,2.4-1.64,4.06-1.64,4.99c0,0.68,0.26,1.11,0.79,1.29s1.31,0.27,2.36,0.27v1.36h-9.59
		v-1.36c0.56-0.07,1.04-0.16,1.45-0.27s0.77-0.27,1.08-0.48c0.32-0.2,0.59-0.47,0.82-0.8c0.23-0.33,0.46-0.73,0.67-1.21l9.21-22.37
		h2.59l8.37,19.83c0.49,1.15,0.9,2.06,1.24,2.72c0.34,0.66,0.7,1.16,1.08,1.51c0.38,0.35,0.83,0.59,1.33,0.73
		c0.5,0.13,1.15,0.24,1.94,0.3v1.39h-13.23v-1.39c1.12-0.04,1.93-0.16,2.42-0.34c0.49-0.18,0.74-0.54,0.74-1.09
		c0-0.32-0.08-0.72-0.25-1.22c-0.16-0.5-0.38-1.11-0.67-1.83L107.91,34.07z M98.8,32.03h8.33l-4.02-10.29h-0.14L98.8,32.03z"/>
	<path class="st0" d="M122.22,20.11c-0.35-0.59-0.67-1.07-0.96-1.46c-0.29-0.38-0.59-0.68-0.89-0.9c-0.3-0.21-0.63-0.36-0.98-0.44
		c-0.35-0.08-0.75-0.12-1.19-0.12v-1.36h11.76v1.36c-0.98,0-1.67,0.09-2.06,0.27c-0.4,0.18-0.59,0.45-0.59,0.81
		c0,0.23,0.07,0.5,0.21,0.81c0.14,0.32,0.36,0.75,0.67,1.29l5,9.27h0.14l4.41-7.13c0.77-1.27,1.31-2.21,1.61-2.84
		c0.3-0.62,0.46-1.11,0.46-1.48c0-0.38-0.18-0.65-0.54-0.8c-0.36-0.15-1.03-0.22-2.01-0.22v-1.36h8.79v1.36
		c-0.51,0-0.98,0.08-1.4,0.24c-0.42,0.16-0.86,0.47-1.31,0.93c-0.45,0.46-0.97,1.11-1.54,1.94c-0.57,0.83-1.25,1.91-2.05,3.24
		l-5.11,8.49v3.46c0,1.13,0.05,2.04,0.16,2.71c0.11,0.68,0.29,1.2,0.56,1.54c0.27,0.35,0.64,0.58,1.1,0.7
		c0.47,0.11,1.07,0.17,1.82,0.17v1.36h-12.46v-1.36c0.72,0,1.32-0.06,1.8-0.17c0.48-0.11,0.86-0.34,1.14-0.68s0.47-0.83,0.58-1.48
		c0.11-0.65,0.16-1.5,0.16-2.56v-3.12L122.22,20.11z"/>
	<path class="st0" d="M147.98,29.61h1.95c0.47,3.07,1.73,5.49,3.8,7.25c2.07,1.76,4.62,2.64,7.65,2.64c1.23,0,2.37-0.14,3.4-0.44
		s1.92-0.7,2.65-1.24c0.73-0.53,1.3-1.16,1.7-1.89c0.4-0.73,0.6-1.54,0.6-2.45c0-0.78-0.13-1.45-0.38-2.01
		c-0.25-0.57-0.73-1.12-1.42-1.65c-0.7-0.53-1.66-1.07-2.88-1.62c-1.22-0.55-2.79-1.18-4.73-1.89c-3.9-1.46-6.78-3.14-8.65-5.07
		c-1.87-1.92-2.8-4.2-2.8-6.81c0-1.52,0.3-2.91,0.9-4.17c0.6-1.26,1.44-2.34,2.53-3.25c1.08-0.91,2.38-1.61,3.9-2.11
		c1.52-0.5,3.19-0.75,5.03-0.75c1.7,0,3.3,0.26,4.8,0.78c1.5,0.52,2.98,1.29,4.45,2.33l0.9-2.42h1.2l0.55,10.48h-1.95
		c-0.8-2.65-2.05-4.68-3.75-6.09c-1.7-1.41-3.67-2.11-5.9-2.11c-2.07,0-3.74,0.49-5.03,1.48c-1.28,0.99-1.92,2.25-1.92,3.81
		c0,0.68,0.12,1.29,0.35,1.82c0.23,0.53,0.67,1.04,1.3,1.53c0.63,0.48,1.5,0.98,2.6,1.48c1.1,0.5,2.52,1.06,4.25,1.67
		c2.33,0.87,4.33,1.75,5.98,2.64c1.65,0.89,3,1.84,4.05,2.86c1.05,1.02,1.83,2.09,2.33,3.23s0.75,2.38,0.75,3.73
		c0,1.65-0.37,3.15-1.1,4.51c-0.73,1.36-1.76,2.52-3.08,3.49c-1.32,0.97-2.88,1.73-4.7,2.28c-1.82,0.55-3.83,0.82-6.03,0.82
		c-2,0-3.8-0.27-5.4-0.8c-1.6-0.53-3.25-1.4-4.95-2.59l-1,2.91h-1.2L147.98,29.61z"/>
	<path class="st0" d="M206.61,36.51c0,0.86,0.04,1.56,0.12,2.09c0.08,0.53,0.26,0.94,0.52,1.22s0.64,0.48,1.12,0.59
		s1.11,0.18,1.91,0.2v1.36h-12.84v-1.36c0.86-0.02,1.56-0.09,2.08-0.2c0.52-0.11,0.93-0.3,1.22-0.58c0.29-0.27,0.48-0.66,0.58-1.15
		c0.09-0.5,0.14-1.14,0.14-1.94v-7.1h-12.99v6.86c0,0.86,0.05,1.56,0.14,2.09c0.09,0.53,0.28,0.94,0.56,1.22s0.68,0.48,1.21,0.59
		c0.53,0.11,1.22,0.18,2.08,0.2v1.36h-12.81v-1.36c0.79-0.02,1.43-0.09,1.91-0.2c0.48-0.11,0.84-0.3,1.1-0.58
		c0.26-0.27,0.43-0.66,0.52-1.15c0.09-0.5,0.14-1.14,0.14-1.94V21.06c0-0.79-0.04-1.43-0.12-1.92c-0.08-0.49-0.24-0.87-0.47-1.15
		c-0.23-0.28-0.57-0.48-1-0.58c-0.43-0.1-1-0.17-1.7-0.22v-1.36h12.07v1.36c-0.79,0.02-1.43,0.09-1.91,0.2s-0.85,0.32-1.1,0.61
		c-0.26,0.29-0.43,0.7-0.51,1.22c-0.08,0.52-0.12,1.21-0.12,2.07v6.25h12.99v-6.48c0-0.79-0.05-1.43-0.14-1.92
		c-0.09-0.49-0.27-0.87-0.52-1.15c-0.26-0.28-0.63-0.48-1.1-0.58c-0.48-0.1-1.11-0.17-1.91-0.22v-1.36h12.11v1.36
		c-0.7,0.02-1.27,0.09-1.7,0.2s-0.76,0.32-1,0.61c-0.23,0.29-0.39,0.7-0.47,1.22c-0.08,0.52-0.12,1.21-0.12,2.07V36.51z"/>
	<path class="st0" d="M221.55,27.52c1.49,0,2.7-0.04,3.61-0.14c0.91-0.09,1.62-0.28,2.12-0.56c0.5-0.28,0.86-0.7,1.07-1.24
		s0.37-1.28,0.49-2.21h1.29v9.95h-1.29c-0.14-0.9-0.33-1.63-0.56-2.17s-0.61-0.96-1.12-1.24c-0.51-0.28-1.21-0.46-2.08-0.54
		c-0.88-0.08-2.05-0.12-3.52-0.12v6.99c0,0.72,0.1,1.34,0.3,1.83c0.2,0.5,0.53,0.9,1,1.21c0.47,0.3,1.08,0.52,1.86,0.64
		c0.77,0.13,1.71,0.19,2.83,0.19c1.33,0,2.46-0.09,3.38-0.27c0.92-0.18,1.69-0.5,2.29-0.95c0.61-0.45,1.1-1.06,1.47-1.82
		c0.37-0.76,0.69-1.71,0.95-2.87h1.4l-0.56,7.78h-23.73v-1.36c0.77-0.02,1.4-0.09,1.89-0.2s0.86-0.3,1.12-0.58
		c0.26-0.27,0.43-0.66,0.52-1.15c0.09-0.5,0.14-1.14,0.14-1.94V21.06c0-0.79-0.04-1.43-0.12-1.92c-0.08-0.49-0.24-0.87-0.47-1.15
		c-0.23-0.28-0.57-0.48-1-0.58c-0.43-0.1-1-0.17-1.7-0.22v-1.36h22.12l0.24,6.65h-1.5c-0.14-0.95-0.36-1.74-0.67-2.36
		c-0.3-0.62-0.72-1.12-1.26-1.49c-0.54-0.37-1.23-0.63-2.08-0.78c-0.85-0.15-1.9-0.22-3.13-0.22h-3.96c-0.61,0-0.98,0.07-1.12,0.22
		c-0.14,0.15-0.21,0.49-0.21,1.04V27.52z"/>
	<path class="st0" d="M248.29,27.52c1.49,0,2.7-0.04,3.61-0.14c0.91-0.09,1.62-0.28,2.12-0.56c0.5-0.28,0.86-0.7,1.07-1.24
		s0.37-1.28,0.49-2.21h1.29v9.95h-1.29c-0.14-0.9-0.33-1.63-0.56-2.17s-0.61-0.96-1.12-1.24c-0.51-0.28-1.21-0.46-2.08-0.54
		c-0.88-0.08-2.05-0.12-3.52-0.12v6.99c0,0.72,0.1,1.34,0.3,1.83c0.2,0.5,0.53,0.9,1,1.21c0.47,0.3,1.08,0.52,1.86,0.64
		c0.77,0.13,1.71,0.19,2.83,0.19c1.33,0,2.46-0.09,3.38-0.27c0.92-0.18,1.69-0.5,2.29-0.95c0.61-0.45,1.1-1.06,1.47-1.82
		c0.37-0.76,0.69-1.71,0.95-2.87h1.4l-0.56,7.78h-23.73v-1.36c0.77-0.02,1.4-0.09,1.89-0.2s0.86-0.3,1.12-0.58
		c0.26-0.27,0.43-0.66,0.52-1.15c0.09-0.5,0.14-1.14,0.14-1.94V21.06c0-0.79-0.04-1.43-0.12-1.92c-0.08-0.49-0.24-0.87-0.47-1.15
		c-0.23-0.28-0.57-0.48-1-0.58c-0.43-0.1-1-0.17-1.7-0.22v-1.36h22.12l0.24,6.65h-1.5c-0.14-0.95-0.36-1.74-0.67-2.36
		c-0.3-0.62-0.72-1.12-1.26-1.49c-0.54-0.37-1.23-0.63-2.08-0.78c-0.85-0.15-1.9-0.22-3.13-0.22h-3.96c-0.61,0-0.98,0.07-1.12,0.22
		c-0.14,0.15-0.21,0.49-0.21,1.04V27.52z"/>
	<path class="st0" d="M289.49,23.1c0,2.45-0.98,4.31-2.94,5.58s-4.81,1.92-8.54,1.92h-2.97v5.97c0,0.86,0.06,1.56,0.17,2.09
		c0.12,0.53,0.36,0.95,0.74,1.24c0.37,0.29,0.89,0.49,1.54,0.58s1.53,0.14,2.63,0.14v1.36h-13.9v-1.36c0.77-0.02,1.4-0.09,1.89-0.2
		s0.86-0.3,1.12-0.58c0.26-0.27,0.43-0.66,0.52-1.15c0.09-0.5,0.14-1.14,0.14-1.94V21.06c0-0.79-0.04-1.43-0.12-1.92
		c-0.08-0.49-0.24-0.87-0.47-1.15c-0.23-0.28-0.57-0.48-1-0.58c-0.43-0.1-1-0.17-1.7-0.22v-1.36h12.11c3.55,0,6.23,0.61,8.05,1.83
		C288.58,18.89,289.49,20.7,289.49,23.1z M275.03,28.57h2.28c2.26,0,3.92-0.44,4.97-1.32s1.58-2.28,1.58-4.18
		c0-1.7-0.44-3.01-1.33-3.94s-2.28-1.39-4.17-1.39h-2.7c-0.42,0-0.63,0.19-0.63,0.58V28.57z"/>
	<path class="st0" d="M292.78,38.87c0-1.03,0.36-1.92,1.08-2.64c0.72-0.73,1.61-1.09,2.67-1.09c1.1,0,2.02,0.36,2.75,1.09
		c0.73,0.73,1.1,1.61,1.1,2.64c0,1-0.37,1.85-1.1,2.55c-0.73,0.7-1.65,1.04-2.75,1.04c-1.07,0-1.96-0.35-2.67-1.04
		C293.14,40.73,292.78,39.88,292.78,38.87z"/>
</g>
<g>
</g>
<g>
</g>
<g>
</g>
<g>
</g>
<g>
</g>
<g>
</g>
<g>
</g>
<g>
</g>
<g>
</g>
<g>
</g>
<g>
</g>
<g>
</g>
<g>
</g>
<g>
</g>
<g>
</g>
</svg>
